<svg xmlns="http://www.w3.org/2000/svg" viewBox="0 0 693.17 693.19"><defs><style>.cls-1{fill:#fefefe;}.cls-2{fill:#e13660;}.cls-3{fill:#e13760;}</style></defs><title>Asset 1</title><g id="Layer_2" data-name="Layer 2"><g id="Layer_1-2" data-name="Layer 1"><path class="cls-1" d="M693.07,579.09q0,55.22.07,110.44c0,2.81-.35,3.66-3.51,3.65q-343.06-.15-686.13,0c-3.16,0-3.51-.85-3.51-3.65q.16-55.22.07-110.44a10.74,10.74,0,0,0,4.82.83q49.73,0,99.46-.06c1.16,0,2.69.75,3.6-1.13-3.93-4.38-8.2-8.57-11.81-13.28-8.87-11.59-17.7-23.2-25.18-35.81-9-15.19-17.31-30.79-23.52-47.24a357.14,357.14,0,0,1-16.9-60.36c-3.78-20.12-5.44-40.34-6.53-60.68-.69-12.8.93-25.54.93-38.32a64.74,64.74,0,0,1,.2-9.29c1.87-12.83,3.2-25.81,6.14-38.4C37,251,44.2,227.07,55.23,204.44c9.54-19.58,20.47-38.23,34-55.37,1.56-2,4.44-3.58,4.13-7q-44.62,0-89.05,0a7.69,7.69,0,0,0-4.23,1V.09Q344.32.09,688.57,0c3.75,0,4.61.84,4.6,4.59-.15,46.17-.1,92.33-.1,138.5H604c3,4.87,5.37,9.29,8.24,13.38,8.14,11.58,14.37,24.23,19.67,37.22a290.56,290.56,0,0,1,12.85,39.42c5,19.86,7.08,40.09,8.15,60.4.77,14.62.2,29.32.13,44,0,7.74,1.12,6.68-6.48,6.68q-195.45,0-390.9-.09c-4.66,0-5.69,1.29-5.69,5.77,0,16.7,2.28,33.17,3.87,49.73a236.72,236.72,0,0,0,11.62,52.9,185.78,185.78,0,0,0,20.31,42.73c11,16.89,24.59,30.84,41.63,41.2,21.72,13.2,45.95,18,71.05,18.56,6.86.16,13.74-1.27,20.6-1.74,15.2-1.06,29.13-6.33,42.71-12.38,11.16-5,21.31-11.84,31.32-19,21-15.08,37.46-34.34,52.8-54.73,5.91-7.85,11.93-15.67,16.38-24.53,1-2.09,2.55-2.31,4.73-1.08,5.29,3,10.73,5.71,16.16,8.43,9.37,4.69,18.79,9.28,28.17,13.94,8.81,4.37,17.6,8.79,26.4,13.18q13.64,6.79,27.3,13.53c2.72,1.33,3.3,2.93,1.56,5.63-7.25,11.24-13.93,22.83-21.4,33.95a478.62,478.62,0,0,1-34.31,44.28c-1.44,1.67-3.46,2.7-3.41,5.48,27.43,0,54.59,0,81.74,0A19.46,19.46,0,0,0,693.07,579.09Zm-345.36-336h85.45c6.46,0,7-.17,5.79-6.74-1.78-9.94-2.91-20-6.75-29.58-10.48-26.34-29.34-43-56.34-50.51-10.47-2.9-21.25-3.09-32.24-2.38a94,94,0,0,0-34,9.06c-14.59,6.77-26.21,17-35.78,29.86-10.07,13.57-14.9,29-17.79,45.33-.64,3.64.49,5.11,4.68,5.08C289.75,243,318.73,243.06,347.71,243.06Z"/><path class="cls-2" d="M693.07,579.09a19.46,19.46,0,0,1-3.83.77c-27.15,0-54.31,0-81.74,0-.05-2.78,2-3.81,3.41-5.48a478.62,478.62,0,0,0,34.31-44.28c7.47-11.11,14.15-22.71,21.4-33.95,1.74-2.7,1.15-4.3-1.56-5.63q-13.67-6.72-27.3-13.53c-8.81-4.38-17.59-8.8-26.4-13.18-9.38-4.66-18.8-9.25-28.17-13.94-5.43-2.72-10.87-5.46-16.16-8.43-2.18-1.23-3.68-1-4.73,1.08-4.44,8.86-10.47,16.69-16.38,24.53-15.34,20.39-31.8,39.65-52.8,54.73-10,7.19-20.16,14.05-31.32,19-13.59,6.05-27.51,11.33-42.71,12.38-6.86.48-13.74,1.9-20.6,1.74-25.11-.57-49.33-5.36-71.05-18.56-17-10.36-30.6-24.31-41.63-41.2a185.78,185.78,0,0,1-20.31-42.73,236.72,236.72,0,0,1-11.62-52.9c-1.59-16.56-3.87-33-3.87-49.73,0-4.48,1-5.78,5.69-5.77q195.45.21,390.9.09c7.6,0,6.44,1.06,6.48-6.68.07-14.66.64-29.36-.13-44-1.07-20.31-3.19-40.55-8.15-60.4a290.56,290.56,0,0,0-12.85-39.42c-5.31-13-11.53-25.63-19.67-37.22-2.87-4.09-5.26-8.51-8.24-13.38h89Z"/><path class="cls-3" d="M.07,143.09a7.69,7.69,0,0,1,4.23-1q44.48.05,89.05,0c.31,3.39-2.56,5-4.13,7-13.52,17.13-24.45,35.79-34,55.37-11,22.63-18.28,46.55-24,70.91-2.94,12.59-4.26,25.57-6.14,38.4a64.74,64.74,0,0,0-.2,9.29c0,12.78-1.62,25.53-.93,38.32,1.1,20.34,2.75,40.56,6.53,60.68a357.14,357.14,0,0,0,16.9,60.36c6.21,16.45,14.51,32,23.52,47.24,7.49,12.62,16.31,24.22,25.18,35.81,3.6,4.7,7.88,8.89,11.81,13.28-.91,1.88-2.44,1.12-3.6,1.13q-49.73.07-99.46.06a10.74,10.74,0,0,1-4.82-.83Z"/><path class="cls-2" d="M347.71,243.06c-29,0-58-.1-86.94.11-4.19,0-5.33-1.44-4.68-5.08,2.89-16.29,7.72-31.75,17.79-45.33,9.57-12.9,21.19-23.09,35.78-29.86a94,94,0,0,1,34-9.06c11-.71,21.77-.52,32.24,2.38,27,7.48,45.86,24.17,56.34,50.51,3.83,9.63,5,19.64,6.75,29.58,1.18,6.57.66,6.74-5.79,6.74Z"/></g></g></svg>